<svg id="Vrstva_1" data-name="Vrstva 1" xmlns="http://www.w3.org/2000/svg" viewBox="0 0 113.39 113.39"><defs><style>.cls-1{fill:#094d7b;}</style></defs><title>veterany_logo</title><path class="cls-1" d="M113.42,84.05c-.94,2.19-2.64,2.89-5,2.86-6.64-.08-13.28,0-19.92,0H87v1.31c0,6.83-.06,13.65,0,20.47a4.25,4.25,0,0,1-4.59,4.65q-25.66-.14-51.34,0c-3.26,0-4.74-2.06-4.7-4.77.11-6.74,0-13.5,0-20.25V86.88H25.05c-6.83,0-13.65,0-20.48,0A4.2,4.2,0,0,1,0,82.44Q.16,56.59,0,30.76a4.2,4.2,0,0,1,4.53-4.47c6.83.08,13.65,0,20.48,0h1.42V24.91c0-6.72,0-13.43,0-20.14,0-2.28.72-3.93,2.86-4.84H84.2c2.13.91,2.88,2.56,2.86,4.84C87,11.48,87,18.19,87,24.9v1.42h1.42c6.67,0,13.35.05,20,0,2.3,0,4,.67,4.94,2.86ZM30.36,109.41H83.14V85.76c0-2.14.63-2.77,2.76-2.77h23.69V30.21H85.89c-2.13,0-2.75-.64-2.75-2.79V3.77H30.36V27.38c0,2.22-.61,2.83-2.82,2.83H3.93V83H27.56c2.2,0,2.8.61,2.8,2.85v23.57Z" transform="translate(-0.04 0.07)"/><path class="cls-1" d="M14,61l2.19.66A9.8,9.8,0,0,1,16,63c-1.29,4.67,1.42,8.61,6.25,8.82A30.61,30.61,0,0,1,36,75.61a24.43,24.43,0,0,1,8.82,7.83c.79,1.2,2,2.8.49,3.93s-2.5-.6-3.28-1.54a25.9,25.9,0,0,0-13.85-9.16,28.87,28.87,0,0,0-6.05-.88A10.28,10.28,0,0,1,13,70.35,23.06,23.06,0,0,1,10.17,59.7a2.45,2.45,0,0,1,1.61-2.55c2.78-1.32,5.51-2.73,8.3-4,3.39-1.55,5.39-4.07,5.63-7.82.15-2.31,1.25-3.52,3.52-4.1,5.88-1.51,11.74-2.6,17.83-1.39,7.62,1.5,12.72,5.87,15,13.25,2,6.42,2.47,12.94.19,19.45a7.54,7.54,0,0,1-.34.9c-1.51,3-3.64,5.37-7.3,5.38s-6-2.31-7.24-5.43c-3.07-7.55-2-15,1.5-22.08.44-.88,2-2,2.73-1.79,1.44.42.93,2,.63,3.16-.82,3.15-1.93,6.24-2.5,9.43a14.51,14.51,0,0,0,1.65,10.23,5.11,5.11,0,0,0,3.29,2.41c1,.05,2.49-1.22,3.18-2.28A11,11,0,0,0,59.38,68,28.94,28.94,0,0,0,57.7,52.68c-2.78-6.59-9.2-10.09-17.29-9.46-1.85.15-3.7.39-5.53.68-3.24.52-5.49,2.49-5.77,5.77-.26,3-1.66,4.51-4.28,5.61-3.18,1.34-6.2,3-9.28,4.62A15.23,15.23,0,0,0,14,61Z" transform="translate(-0.04 0.07)"/><path class="cls-1" d="M91.78,61.7l2.3-.51.11-.43c-1.55-.65-3.08-1.38-4.66-1.92a2.86,2.86,0,0,1-2.16-3C87,49.19,83.52,44.9,77,43.05a2.63,2.63,0,0,1-2.19-2.89c0-1.67,0-3.33-.07-5-.13-2.53-1.62-3.35-3.71-1.85-3,2.17-5.83,4.59-8.77,6.84a9.35,9.35,0,0,1-2.78,1.6c-1.49.46-2.41-.59-1.82-2a6.29,6.29,0,0,1,1.55-2.14A78.35,78.35,0,0,1,74.68,26.32c2.82-1.56,4-.83,4,2.4,0,1.86,0,3.72,0,5.57a7,7,0,0,0,3.62,6.56,18.31,18.31,0,0,1,8.56,10.89c.78,2.65,2.31,4.66,5.22,5.34,1.78.41,2.44,1.59,2.24,3.44-.39,3.67-1.1,7.21-3.15,10.37a10.15,10.15,0,0,1-8.64,4.88,22.77,22.77,0,0,0-17.76,8.92,15.52,15.52,0,0,1-2.4,2.46c-.38.32-1.25.57-1.53.35a1.93,1.93,0,0,1-.69-1.6,9.47,9.47,0,0,1,1.31-3.14c4.6-6.51,11-9.9,18.86-10.81.76-.09,1.53-.1,2.3-.17,4.5-.42,6.81-3.77,5.59-8.1C92.06,63.08,92,62.47,91.78,61.7Z" transform="translate(-0.04 0.07)"/><path class="cls-1" d="M80.45,56.47c-.37-1.8.32-2.87,1.79-3.26a2.47,2.47,0,0,1,3.09,1.61c.43,1,.26,1.74-1.13,1.66C83,56.41,81.8,56.47,80.45,56.47Z" transform="translate(-0.04 0.07)"/><path class="cls-1" d="M29.66,56.51c-.19-2.18.48-3.21,2.07-3.35a2.33,2.33,0,0,1,2.76,2,1.65,1.65,0,0,1-.94,1.27A31.13,31.13,0,0,1,29.66,56.51Z" transform="translate(-0.04 0.07)"/></svg>